<svg xmlns="http://www.w3.org/2000/svg" version="1.1" xmlns:xlink="http://www.w3.org/1999/xlink" xmlns:svgjs="http://svgjs.dev/svgjs" width="1000" height="623" viewBox="0 0 1000 623"><g transform="matrix(1,0,0,1,-0.6060606060606233,0.2522267206477409)"><svg viewBox="0 0 396 247" data-background-color="#ffffff" preserveAspectRatio="xMidYMid meet" height="623" width="1000" xmlns="http://www.w3.org/2000/svg" xmlns:xlink="http://www.w3.org/1999/xlink"><g id="tight-bounds" transform="matrix(1,0,0,1,0.2400000000000091,-0.09999999999999432)"><svg viewBox="0 0 395.52 247.2" height="247.2" width="395.52"><g><svg></svg></g><g><svg viewBox="0 0 395.52 247.2" height="247.2" width="395.52"><g transform="matrix(1,0,0,1,75.54432,65.67876515337423)"><svg viewBox="0 0 244.43135999999998 115.84246969325153" height="115.84246969325153" width="244.43135999999998"><g><svg viewBox="0 0 244.43135999999998 115.84246969325153" height="115.84246969325153" width="244.43135999999998"><g><svg viewBox="0 0 244.43135999999998 115.84246969325153" height="115.84246969325153" width="244.43135999999998"><g><svg viewBox="0 0 244.43135999999998 115.84246969325153" height="115.84246969325153" width="244.43135999999998"><g id="textblocktransform"><svg viewBox="0 0 244.43135999999998 115.84246969325153" height="115.84246969325153" width="244.43135999999998" id="textblock"><g><svg viewBox="0 0 244.43135999999998 115.84246969325153" height="115.84246969325153" width="244.43135999999998"><g transform="matrix(1,0,0,1,0,0)"><svg width="244.43135999999998" viewBox="-0.15000000596046448 -29.540000915527344 63.67000198364258 30.170000076293945" height="115.84246969325153" data-palette-color="#ff0000"><path d="M10.25 0L0 0-0.15-2.78 2.44-3.71 12.3-26.86 17.14-29.54 28.76-3.71 31.35-2.78 31.2 0 16.11 0 15.87-2.78 19.09-3.71 16.7-9.33 16.16-11.13 11.52-21.58 13.18-20.51 9.77-11.38 9.33-9.91 7.18-3.71 10.4-2.78 10.25 0ZM7.91-7.81L7.91-7.81 7.91-11.62Q8.94-11.57 9.99-11.47 11.04-11.38 12.89-11.38L12.89-11.38Q14.7-11.38 15.82-11.47 16.94-11.57 17.92-11.62L17.92-11.62 17.92-7.86Q17.53-7.86 16.36-7.91 15.19-7.96 12.89-7.96L12.89-7.96Q10.5-7.96 9.4-7.91 8.3-7.86 7.91-7.81ZM46.68 0L32.81 0 32.66-2.78 35.84-3.66Q35.84-3.96 35.86-4.86 35.89-5.76 35.91-6.98 35.94-8.2 35.96-9.4 35.98-10.6 35.98-11.43L35.98-11.43 35.98-17.29Q35.98-19.19 35.94-20.87 35.89-22.56 35.79-23.68 35.69-24.8 35.59-24.95L35.59-24.95 32.42-25.88 32.57-28.66 46.38-28.66Q52.63-28.66 55.52-26.86 58.4-25.05 58.4-21L58.4-21Q58.4-18.6 56.86-16.72 55.32-14.84 52.61-13.77 49.9-12.7 46.38-12.7L46.38-12.7 42.82-12.7 42.82-15.92 45.02-15.92Q47.12-15.92 48.48-17.41 49.85-18.9 49.85-21.24L49.85-21.24Q49.85-23.34 48.73-24.46 47.6-25.59 45.46-25.59L45.46-25.59 44.19-25.59Q44.19-25.39 44.16-24.46 44.14-23.54 44.11-22.24 44.09-20.95 44.09-19.63 44.09-18.31 44.09-17.38L44.09-17.38 44.09-11.43Q44.09-10.64 44.11-9.13 44.14-7.62 44.16-6.08 44.19-4.54 44.19-3.66L44.19-3.66 46.82-2.78 46.68 0ZM59.76 0.63L59.76 0.63Q56.69 0.63 54.25-0.29 51.8-1.22 50.07-3.03 48.34-4.83 47.26-7.47L47.26-7.47 44.87-13.48 51.36-14.99 57.52-6.69Q58.3-5.71 59.23-4.86 60.15-4 61.23-3.34 62.3-2.69 63.52-2.29L63.52-2.29 63.47 0.29Q62.5 0.49 61.59 0.56 60.69 0.63 59.76 0.63Z" opacity="1" transform="matrix(1,0,0,1,0,0)" fill="#ff0000" class="wordmark-text-0" data-fill-palette-color="primary" id="text-0"></path></svg></g></svg></g></svg></g></svg></g></svg></g></svg></g></svg></g><g><path d="M0 123.6c0-68.262 55.338-123.6 123.6-123.6 41.578 0 78.361 20.53 100.765 52.005l-6.485 0c-21.622-28.428-55.807-46.782-94.28-46.782-65.378 0-118.377 52.999-118.377 118.377 0 65.378 52.999 118.377 118.377 118.377 38.472 0 72.658-18.353 94.28-46.782h6.485c-22.404 31.475-59.187 52.005-100.765 52.005-68.262 0-123.6-55.338-123.6-123.6z" fill="#ff0000" stroke="transparent" data-fill-palette-color="tertiary"></path></g></svg></g><defs></defs></svg><rect width="395.52" height="247.2" fill="none" stroke="none" visibility="hidden"></rect></g></svg></g></svg>